<svg width="1920" height="1080" viewBox="0 0 1920 1080" fill="none" xmlns="http://www.w3.org/2000/svg">
<path d="M258.848 738.808V660.743H227.906V738.808H258.848Z" fill="#F2A918"/>
<path d="M258.848 570.351H135.413V648.417H258.848V570.351Z" fill="#F2A918"/>
<path d="M123.435 570.351H0V648.417H123.435V570.351Z" fill="#F2A918"/>
<path d="M0 738.808V660.743H30.942V738.808H0Z" fill="#F2A918"/>
<path d="M0 829.199H123.435V751.134H0V829.199Z" fill="#F2A918"/>
<path d="M135.413 829.199H258.848V751.134H135.413V829.199Z" fill="#F2A918"/>
<path d="M215.929 660.743H42.9196V738.808H215.929V660.743Z" fill="#F2A918"/>
<path d="M20.4711 251.526H71.0583L129.519 446.318L187.783 251.526H232.465L150.974 536.282H107.867L20.4711 251.526ZM0 251.526H48.2251L55.705 439.277V536.282H0V251.526ZM210.419 251.526H258.841V536.282H203.333V439.277L210.419 251.526Z" fill="#F5F5F5"/>
<path d="M458.957 488.953V536.282H334.359V488.953H458.957ZM352.271 251.526V536.282H294.598V251.526H352.271ZM442.226 366.914V412.874H334.359V366.914H442.226ZM458.563 251.526V299.05H334.359V251.526H458.563Z" fill="#F5F5F5"/>
<path d="M602.58 461.377C602.58 456.292 602.121 451.663 601.203 447.491C600.284 443.319 598.316 439.473 595.297 435.952C592.41 432.432 588.146 428.911 582.503 425.391C576.992 421.871 569.774 418.22 560.851 414.439C550.222 410.006 539.921 405.312 529.947 400.358C519.974 395.273 510.985 389.405 502.981 382.756C494.976 376.106 488.612 368.283 483.888 359.287C479.295 350.16 476.998 339.469 476.998 327.213C476.998 315.218 479.163 304.331 483.494 294.552C487.956 284.773 494.254 276.429 502.39 269.518C510.526 262.478 520.04 257.067 530.932 253.286C541.955 249.505 554.224 247.614 567.74 247.614C586.112 247.614 601.99 251.395 615.375 258.957C628.891 266.52 639.323 276.885 646.672 290.054C654.152 303.222 657.892 318.347 657.892 335.427H600.415C600.415 327.343 599.234 320.237 596.872 314.109C594.641 307.851 591.033 302.962 586.046 299.441C581.06 295.921 574.63 294.161 566.756 294.161C559.407 294.161 553.305 295.66 548.45 298.659C543.726 301.527 540.183 305.504 537.821 310.589C535.59 315.544 534.475 321.15 534.475 327.408C534.475 332.102 535.59 336.34 537.821 340.121C540.183 343.771 543.398 347.096 547.466 350.095C551.534 352.963 556.324 355.767 561.835 358.505C567.478 361.243 573.645 363.916 580.338 366.523C593.329 371.608 604.811 377.215 614.784 383.343C624.757 389.34 633.09 396.12 639.783 403.682C646.475 411.114 651.527 419.524 654.939 428.911C658.351 438.299 660.057 448.99 660.057 460.986C660.057 472.851 657.957 483.672 653.758 493.451C649.69 503.099 643.719 511.444 635.846 518.485C627.972 525.395 618.459 530.741 607.304 534.522C596.282 538.303 583.947 540.193 570.299 540.193C557.045 540.193 544.513 538.368 532.703 534.717C520.893 530.936 510.461 525.264 501.406 517.702C492.483 510.01 485.462 500.296 480.344 488.562C475.227 476.697 472.668 462.681 472.668 446.513H530.341C530.341 455.118 531.194 462.485 532.9 468.613C534.606 474.611 537.23 479.435 540.774 483.086C544.317 486.606 548.647 489.279 553.765 491.104C559.014 492.799 564.985 493.647 571.677 493.647C579.288 493.647 585.324 492.212 589.786 489.344C594.379 486.476 597.659 482.629 599.628 477.805C601.596 472.981 602.58 467.505 602.58 461.377Z" fill="#F5F5F5"/>
<path d="M808.995 461.377C808.995 456.292 808.536 451.663 807.617 447.491C806.699 443.319 804.73 439.473 801.712 435.952C798.825 432.432 794.56 428.911 788.918 425.391C783.406 421.871 776.189 418.22 767.266 414.439C756.636 410.006 746.335 405.312 736.362 400.358C726.389 395.273 717.4 389.405 709.395 382.756C701.391 376.106 695.026 368.283 690.302 359.287C685.709 350.16 683.413 339.469 683.413 327.213C683.413 315.218 685.578 304.331 689.909 294.552C694.37 284.773 700.669 276.429 708.805 269.518C716.941 262.478 726.455 257.067 737.346 253.286C748.369 249.505 760.639 247.614 774.155 247.614C792.526 247.614 808.405 251.395 821.79 258.957C835.306 266.52 845.738 276.885 853.087 290.054C860.566 303.222 864.306 318.347 864.306 335.427H806.83C806.83 327.343 805.649 320.237 803.287 314.109C801.056 307.851 797.447 302.962 792.461 299.441C787.474 295.921 781.044 294.161 773.171 294.161C765.822 294.161 759.72 295.66 754.865 298.659C750.141 301.527 746.598 305.504 744.236 310.589C742.005 315.544 740.889 321.15 740.889 327.408C740.889 332.102 742.005 336.34 744.236 340.121C746.598 343.771 749.813 347.096 753.881 350.095C757.949 352.963 762.738 355.767 768.25 358.505C773.892 361.243 780.06 363.916 786.752 366.523C799.744 371.608 811.226 377.215 821.199 383.343C831.172 389.34 839.505 396.12 846.197 403.682C852.89 411.114 857.942 419.524 861.354 428.911C864.766 438.299 866.472 448.99 866.472 460.986C866.472 472.851 864.372 483.672 860.173 493.451C856.105 503.099 850.134 511.444 842.261 518.485C834.387 525.395 824.873 530.741 813.719 534.522C802.696 538.303 790.361 540.193 776.714 540.193C763.46 540.193 750.928 538.368 739.118 534.717C727.308 530.936 716.875 525.264 707.821 517.702C698.897 510.01 691.877 500.296 686.759 488.562C681.641 476.697 679.082 462.681 679.082 446.513H736.756C736.756 455.118 737.609 462.485 739.315 468.613C741.021 474.611 743.645 479.435 747.188 483.086C750.731 486.606 755.062 489.279 760.179 491.104C765.428 492.799 771.399 493.647 778.092 493.647C785.703 493.647 791.739 492.212 796.201 489.344C800.794 486.476 804.074 482.629 806.043 477.805C808.011 472.981 808.995 467.505 808.995 461.377Z" fill="#F5F5F5"/>
<path d="M1058.52 488.953V536.282H933.919V488.953H1058.52ZM951.831 251.526V536.282H894.158V251.526H951.831ZM1041.79 366.914V412.874H933.919V366.914H1041.79ZM1058.12 251.526V299.05H933.919V251.526H1058.12Z" fill="#F5F5F5"/>
<path d="M1281.27 251.526V536.282H1225.56L1135.61 358.114V536.282H1080.89V251.526H1135.81L1226.55 431.65V251.526H1281.27Z" fill="#F5F5F5"/>
<path d="M1511.11 386.667V504.012C1507.04 508.315 1501.07 513.334 1493.2 519.071C1485.45 524.678 1475.28 529.632 1462.69 533.935C1450.22 538.107 1435 540.193 1417.02 540.193C1401.14 540.193 1386.71 537.716 1373.72 532.762C1360.86 527.807 1349.77 520.31 1340.45 510.27C1331.26 500.101 1324.24 487.453 1319.39 472.329C1314.53 457.074 1312.1 439.016 1312.1 418.155V369.652C1312.1 349.052 1314.4 331.124 1318.99 315.869C1323.72 300.484 1330.54 287.707 1339.47 277.537C1348.39 267.367 1359.02 259.805 1371.35 254.85C1383.82 249.896 1397.86 247.418 1413.48 247.418C1435 247.418 1452.65 251.004 1466.43 258.175C1480.34 265.346 1490.83 275.972 1497.92 290.054C1505.14 304.135 1509.47 321.411 1510.91 341.881H1455.21C1454.29 329.886 1452.25 320.498 1449.1 313.718C1446.09 306.938 1441.82 302.114 1436.31 299.246C1430.8 296.247 1423.65 294.747 1414.85 294.747C1407.24 294.747 1400.62 296.116 1394.97 298.855C1389.33 301.462 1384.61 305.765 1380.8 311.762C1377 317.76 1374.17 325.453 1372.34 334.84C1370.5 344.228 1369.58 355.701 1369.58 369.261V418.155C1369.58 431.584 1370.63 443.058 1372.73 452.576C1374.83 462.094 1377.91 469.852 1381.98 475.849C1386.18 481.847 1391.43 486.215 1397.73 488.953C1404.16 491.56 1411.7 492.864 1420.37 492.864C1427.32 492.864 1432.9 492.147 1437.1 490.713C1441.3 489.279 1444.64 487.779 1447.14 486.215C1449.76 484.52 1451.93 483.216 1453.63 482.303V429.889H1412.49V386.667H1511.11Z" fill="#F5F5F5"/>
<path d="M1705.71 488.953V536.282H1581.11V488.953H1705.71ZM1599.03 251.526V536.282H1541.35V251.526H1599.03ZM1688.98 366.914V412.874H1581.11V366.914H1688.98ZM1705.32 251.526V299.05H1581.11V251.526H1705.32Z" fill="#F5F5F5"/>
<path d="M1728.28 251.526H1820.2C1839.36 251.526 1855.7 254.785 1869.22 261.304C1882.73 267.823 1893.1 277.472 1900.32 290.249C1907.53 303.027 1911.14 318.803 1911.14 337.578C1911.14 352.963 1909.04 366.132 1904.84 377.084C1900.64 387.906 1894.67 396.968 1886.93 404.269C1879.19 411.44 1869.94 417.177 1859.18 421.48L1841.66 431.845H1767.06L1766.86 384.321H1818.63C1826.5 384.321 1833 382.626 1838.12 379.236C1843.36 375.715 1847.24 370.826 1849.73 364.568C1852.35 358.179 1853.67 350.747 1853.67 342.272C1853.67 333.276 1852.48 325.583 1850.12 319.194C1847.89 312.675 1844.28 307.721 1839.3 304.331C1834.44 300.81 1828.08 299.05 1820.2 299.05H1785.95V536.282H1728.28V251.526ZM1858.39 536.282L1805.83 409.354L1866.26 409.158L1920 533.544V536.282H1858.39Z" fill="#F5F5F5"/>
<path d="M308.478 569.687H340.203L408.111 781.253L475.841 569.687H507.567L420.409 829.198H395.456L308.478 569.687ZM298.14 569.687H325.945L330.757 727.96V829.198H298.14V569.687ZM489.921 569.687H517.726V829.198H485.109V727.96L489.921 569.687Z" fill="#F5F5F5"/>
<path d="M686.936 592.68L615.998 829.198H582.49L666.082 569.687H687.114L686.936 592.68ZM744.327 829.198L673.39 592.68L673.033 569.687H694.243L777.836 829.198H744.327ZM744.327 733.129V761.29H619.206V733.129H744.327Z" fill="#F5F5F5"/>
<path d="M952.571 763.607C952.571 757.547 951.858 752.2 950.432 747.566C949.006 742.813 946.511 738.536 942.946 734.733C939.381 730.931 934.391 727.307 927.974 723.861C921.558 720.415 913.418 716.91 903.556 713.345C892.862 709.543 883.178 705.324 874.503 700.69C865.829 695.937 858.403 690.531 852.224 684.471C846.164 678.411 841.47 671.46 838.143 663.617C834.816 655.775 833.153 646.804 833.153 636.704C833.153 626.604 834.876 617.276 838.322 608.721C841.886 600.166 846.877 592.739 853.293 586.441C859.829 580.025 867.671 575.034 876.821 571.47C885.97 567.905 896.189 566.123 907.477 566.123C924.35 566.123 938.549 569.866 950.075 577.351C961.72 584.718 970.513 594.403 976.454 606.404C982.395 618.286 985.366 631 985.366 644.546H952.571C952.571 634.803 950.966 626.188 947.758 618.702C944.669 611.097 939.797 605.156 933.143 600.878C926.608 596.482 918.052 594.284 907.477 594.284C897.971 594.284 890.129 596.126 883.95 599.809C877.89 603.493 873.375 608.483 870.404 614.781C867.552 621.078 866.126 628.267 866.126 636.347C866.126 641.813 867.077 646.804 868.978 651.319C870.879 655.716 873.791 659.815 877.712 663.617C881.752 667.42 886.742 670.925 892.683 674.133C898.743 677.341 905.873 680.431 914.072 683.401C926.786 687.56 937.658 692.194 946.689 697.304C955.719 702.413 963.086 708.176 968.79 714.593C974.494 720.89 978.652 728.079 981.267 736.159C983.999 744.12 985.366 753.151 985.366 763.251C985.366 773.826 983.584 783.392 980.019 791.947C976.573 800.502 971.523 807.81 964.869 813.87C958.215 819.93 950.194 824.623 940.807 827.95C931.42 831.159 920.845 832.763 909.081 832.763C898.862 832.763 888.822 831.099 878.959 827.772C869.216 824.445 860.363 819.455 852.402 812.8C844.441 806.146 838.084 797.947 833.331 788.204C828.578 778.342 826.202 766.934 826.202 753.983H858.997C858.997 762.894 860.304 770.559 862.918 776.975C865.532 783.273 869.156 788.501 873.791 792.66C878.425 796.819 883.712 799.908 889.653 801.928C895.713 803.829 902.189 804.78 909.081 804.78C918.587 804.78 926.548 803.116 932.965 799.789C939.5 796.462 944.372 791.709 947.58 785.53C950.907 779.352 952.571 772.044 952.571 763.607Z" fill="#F5F5F5"/>
<path d="M1222.66 676.985V722.079C1222.66 740.377 1220.64 756.478 1216.6 770.38C1212.68 784.164 1206.92 795.69 1199.31 804.958C1191.71 814.226 1182.56 821.177 1171.86 825.812C1161.17 830.446 1149.11 832.763 1135.68 832.763C1122.73 832.763 1110.91 830.446 1100.21 825.812C1089.52 821.177 1080.31 814.226 1072.59 804.958C1064.86 795.69 1058.86 784.164 1054.59 770.38C1050.43 756.478 1048.35 740.377 1048.35 722.079V676.985C1048.35 658.686 1050.43 642.645 1054.59 628.861C1058.74 614.959 1064.69 603.374 1072.41 594.106C1080.13 584.837 1089.34 577.886 1100.04 573.252C1110.73 568.499 1122.55 566.123 1135.5 566.123C1148.93 566.123 1160.99 568.499 1171.69 573.252C1182.5 577.886 1191.65 584.837 1199.13 594.106C1206.74 603.374 1212.56 614.959 1216.6 628.861C1220.64 642.645 1222.66 658.686 1222.66 676.985ZM1190.22 722.079V676.629C1190.22 662.37 1189.03 650.131 1186.66 639.912C1184.28 629.574 1180.78 621.138 1176.14 614.603C1171.51 608.067 1165.8 603.255 1159.03 600.166C1152.26 596.957 1144.42 595.353 1135.5 595.353C1127.07 595.353 1119.46 596.957 1112.69 600.166C1106.04 603.255 1100.33 608.067 1095.58 614.603C1090.83 621.138 1087.14 629.574 1084.53 639.912C1082.03 650.131 1080.79 662.37 1080.79 676.629V722.079C1080.79 736.456 1082.03 748.814 1084.53 759.152C1087.14 769.37 1090.83 777.807 1095.58 784.461C1100.45 790.996 1106.27 795.868 1113.05 799.076C1119.82 802.166 1127.36 803.71 1135.68 803.71C1144.59 803.71 1152.44 802.166 1159.21 799.076C1166.1 795.868 1171.8 790.996 1176.32 784.461C1180.95 777.807 1184.4 769.37 1186.66 759.152C1189.03 748.814 1190.22 736.456 1190.22 722.079Z" fill="#F5F5F5"/>
<path d="M1468.69 569.687V829.198H1435.72L1331.81 629.04V829.198H1299.01V569.687H1331.81L1436.25 770.38V569.687H1468.69Z" fill="#F5F5F5"/>
<path d="M1551.1 569.687H1623.64C1640.51 569.687 1654.65 572.658 1666.06 578.599C1677.59 584.54 1686.26 593.333 1692.08 604.978C1698.03 616.504 1701 630.703 1701 647.576C1701 659.459 1699.04 670.331 1695.11 680.193C1691.19 689.937 1685.49 698.254 1678 705.146C1670.52 711.919 1661.43 716.969 1650.73 720.296L1641.82 724.039H1577.12L1576.77 696.056H1623.28C1633.27 696.056 1641.58 693.917 1648.24 689.64C1654.89 685.243 1659.88 679.361 1663.21 671.994C1666.54 664.627 1668.2 656.488 1668.2 647.576C1668.2 637.595 1666.72 628.861 1663.74 621.376C1660.77 613.89 1656.02 608.127 1649.49 604.087C1643.07 599.928 1634.45 597.848 1623.64 597.848H1583.89V829.198H1551.1V569.687ZM1675.69 829.198L1624 711.563L1658.04 711.384L1710.8 827.059V829.198H1675.69Z" fill="#F5F5F5"/>
<path d="M1776.45 569.687L1829.39 699.977L1882.5 569.687H1919.58L1845.79 732.238V829.198H1812.99V732.238L1739.2 569.687H1776.45Z" fill="#F5F5F5"/>
</svg>
