<svg width="1920" height="1080" viewBox="0 0 1920 1080" fill="none" xmlns="http://www.w3.org/2000/svg">
<path d="M260.241 738.413V660.503H229.36V738.413H260.241Z" fill="#F2A918"/>
<path d="M260.241 570.291H137.051V648.201H260.241V570.291Z" fill="#F2A918"/>
<path d="M125.097 570.291H1.90686V648.201H125.097V570.291Z" fill="#F2A918"/>
<path d="M1.90686 738.413V660.503H32.7874V738.413H1.90686Z" fill="#F2A918"/>
<path d="M1.90686 828.625H125.097V750.715H1.90686V828.625Z" fill="#F2A918"/>
<path d="M137.051 828.625H260.241V750.715H137.051V828.625Z" fill="#F2A918"/>
<path d="M217.407 660.503H44.7412V738.413H217.407V660.503Z" fill="#F2A918"/>
<path d="M22.3373 252.099H72.824L131.169 446.504L189.317 252.099H233.91L152.581 536.29H109.559L22.3373 252.099ZM1.90686 252.099H50.0362L57.5012 439.477V536.29H1.90686V252.099ZM211.908 252.099H260.234V536.29H204.836V439.477L211.908 252.099Z" fill="#0A0A0A"/>
<path d="M459.952 489.055V536.29H335.602V489.055H459.952ZM353.478 252.099V536.29H295.919V252.099H353.478ZM443.254 367.259V413.127H335.602V367.259H443.254ZM459.559 252.099V299.529H335.602V252.099H459.559Z" fill="#0A0A0A"/>
<path d="M603.29 461.533C603.29 456.459 602.832 451.839 601.915 447.675C600.998 443.511 599.034 439.673 596.022 436.159C593.141 432.646 588.884 429.133 583.253 425.619C577.752 422.106 570.549 418.462 561.644 414.689C551.036 410.265 540.755 405.58 530.802 400.635C520.848 395.561 511.877 389.705 503.889 383.069C495.9 376.432 489.548 368.625 484.833 359.646C480.249 350.538 477.958 339.868 477.958 327.636C477.958 315.664 480.119 304.799 484.44 295.04C488.893 285.281 495.179 276.953 503.299 270.056C511.419 263.029 520.914 257.629 531.784 253.856C542.785 250.082 555.03 248.195 568.519 248.195C586.854 248.195 602.701 251.969 616.059 259.516C629.549 267.063 639.96 277.408 647.294 290.551C654.759 303.693 658.492 318.787 658.492 335.834H601.129C601.129 327.766 599.951 320.674 597.593 314.558C595.367 308.312 591.766 303.433 586.789 299.919C581.812 296.406 575.395 294.649 567.537 294.649C560.203 294.649 554.113 296.146 549.268 299.139C544.553 302.001 541.017 305.97 538.66 311.045C536.433 315.99 535.32 321.585 535.32 327.831C535.32 332.516 536.433 336.745 538.66 340.518C541.017 344.162 544.226 347.48 548.285 350.473C552.345 353.335 557.125 356.133 562.626 358.866C568.257 361.598 574.413 364.266 581.092 366.868C594.057 371.943 605.517 377.538 615.47 383.654C625.423 389.64 633.74 396.406 640.419 403.954C647.098 411.371 652.14 419.764 655.545 429.133C658.95 438.501 660.653 449.172 660.653 461.143C660.653 472.984 658.557 483.785 654.366 493.544C650.307 503.173 644.348 511.501 636.49 518.528C628.632 525.424 619.137 530.759 608.005 534.533C597.004 538.307 584.693 540.193 571.073 540.193C557.846 540.193 545.339 538.372 533.552 534.728C521.765 530.955 511.354 525.294 502.317 517.747C493.411 510.07 486.405 500.375 481.297 488.664C476.19 476.823 473.636 462.835 473.636 446.699H531.195C531.195 455.287 532.046 462.639 533.748 468.755C535.451 474.741 538.07 479.556 541.606 483.199C545.142 486.712 549.464 489.38 554.572 491.202C559.81 492.893 565.769 493.739 572.448 493.739C580.044 493.739 586.069 492.308 590.521 489.445C595.105 486.582 598.379 482.744 600.344 477.929C602.308 473.114 603.29 467.649 603.29 461.533Z" fill="#0A0A0A"/>
<path d="M809.295 461.533C809.295 456.459 808.837 451.839 807.92 447.675C807.003 443.511 805.039 439.673 802.027 436.159C799.145 432.646 794.889 429.133 789.258 425.619C783.757 422.106 776.554 418.462 767.648 414.689C757.04 410.265 746.76 405.58 736.806 400.635C726.853 395.561 717.882 389.705 709.893 383.069C701.904 376.432 695.553 368.625 690.838 359.646C686.254 350.538 683.962 339.868 683.962 327.636C683.962 315.664 686.123 304.799 690.445 295.04C694.898 285.281 701.184 276.953 709.304 270.056C717.424 263.029 726.919 257.629 737.789 253.856C748.79 250.082 761.035 248.195 774.524 248.195C792.859 248.195 808.706 251.969 822.064 259.516C835.553 267.063 845.965 277.408 853.299 290.551C860.764 303.693 864.496 318.787 864.496 335.834H807.134C807.134 327.766 805.955 320.674 803.598 314.558C801.372 308.312 797.77 303.433 792.794 299.919C787.817 296.406 781.4 294.649 773.542 294.649C766.208 294.649 760.118 296.146 755.272 299.139C750.558 302.001 747.022 305.97 744.664 311.045C742.438 315.99 741.325 321.585 741.325 327.831C741.325 332.516 742.438 336.745 744.664 340.518C747.022 344.162 750.23 347.48 754.29 350.473C758.35 353.335 763.13 356.133 768.631 358.866C774.262 361.598 780.417 364.266 787.097 366.868C800.062 371.943 811.521 377.538 821.475 383.654C831.428 389.64 839.744 396.406 846.423 403.954C853.103 411.371 858.145 419.764 861.55 429.133C864.955 438.501 866.657 449.172 866.657 461.143C866.657 472.984 864.562 483.785 860.371 493.544C856.311 503.173 850.352 511.501 842.494 518.528C834.637 525.424 825.142 530.759 814.01 534.533C803.009 538.307 790.698 540.193 777.078 540.193C763.85 540.193 751.343 538.372 739.557 534.728C727.77 530.955 717.358 525.294 708.322 517.747C699.416 510.07 692.409 500.375 687.302 488.664C682.194 476.823 679.64 462.835 679.64 446.699H737.199C737.199 455.287 738.05 462.639 739.753 468.755C741.456 474.741 744.075 479.556 747.611 483.199C751.147 486.712 755.469 489.38 760.576 491.202C765.815 492.893 771.774 493.739 778.453 493.739C786.049 493.739 792.073 492.308 796.526 489.445C801.11 486.582 804.384 482.744 806.348 477.929C808.313 473.114 809.295 467.649 809.295 461.533Z" fill="#0A0A0A"/>
<path d="M1058.32 489.055V536.29H933.971V489.055H1058.32ZM951.847 252.099V536.29H894.289V252.099H951.847ZM1041.62 367.259V413.127H933.971V367.259H1041.62ZM1057.93 252.099V299.529H933.971V252.099H1057.93Z" fill="#0A0A0A"/>
<path d="M1280.63 252.099V536.29H1225.04L1135.26 358.475V536.29H1080.65V252.099H1135.46L1226.02 431.865V252.099H1280.63Z" fill="#0A0A0A"/>
<path d="M1510.01 386.972V504.084C1505.95 508.378 1499.99 513.388 1492.14 519.113C1484.41 524.709 1474.26 529.653 1461.69 533.947C1449.25 538.111 1434.05 540.193 1416.11 540.193C1400.26 540.193 1385.86 537.721 1372.89 532.776C1360.06 527.832 1348.99 520.349 1339.69 510.33C1330.53 500.18 1323.52 487.558 1318.67 472.464C1313.83 457.239 1311.41 439.217 1311.41 418.397V369.991C1311.41 349.432 1313.7 331.54 1318.28 316.315C1323 300.96 1329.81 288.208 1338.71 278.059C1347.62 267.909 1358.23 260.362 1370.54 255.417C1382.98 250.472 1396.99 248 1412.58 248C1434.05 248 1451.67 251.578 1465.42 258.735C1479.3 265.892 1489.78 276.497 1496.85 290.551C1504.05 304.604 1508.38 321.845 1509.82 342.275H1454.22C1453.31 330.303 1451.28 320.934 1448.13 314.168C1445.12 307.402 1440.86 302.587 1435.36 299.724C1429.86 296.731 1422.73 295.235 1413.95 295.235C1406.35 295.235 1399.74 296.601 1394.11 299.334C1388.48 301.936 1383.76 306.23 1379.97 312.216C1376.17 318.202 1373.35 325.879 1371.52 335.248C1369.68 344.617 1368.77 356.068 1368.77 369.601V418.397C1368.77 431.8 1369.82 443.251 1371.91 452.75C1374.01 462.249 1377.08 469.991 1381.14 475.977C1385.33 481.963 1390.57 486.322 1396.86 489.055C1403.28 491.657 1410.81 492.958 1419.45 492.958C1426.39 492.958 1431.96 492.243 1436.15 490.811C1440.34 489.38 1443.68 487.883 1446.17 486.322C1448.79 484.63 1450.95 483.329 1452.65 482.418V430.108H1411.59V386.972H1510.01Z" fill="#0A0A0A"/>
<path d="M1704.23 489.055V536.29H1579.88V489.055H1704.23ZM1597.76 252.099V536.29H1540.2V252.099H1597.76ZM1687.53 367.259V413.127H1579.88V367.259H1687.53ZM1703.84 252.099V299.529H1579.88V252.099H1703.84Z" fill="#0A0A0A"/>
<path d="M1726.75 252.099H1818.49C1837.62 252.099 1853.92 255.352 1867.41 261.858C1880.9 268.364 1891.25 277.994 1898.45 290.746C1905.65 303.498 1909.25 319.243 1909.25 337.981C1909.25 353.335 1907.16 366.478 1902.97 377.408C1898.78 388.209 1892.82 397.252 1885.09 404.539C1877.36 411.696 1868.13 417.421 1857.39 421.715L1839.91 432.06H1765.45L1765.26 384.63H1816.92C1824.78 384.63 1831.26 382.939 1836.37 379.555C1841.61 376.042 1845.47 371.162 1847.96 364.916C1850.58 358.54 1851.89 351.123 1851.89 342.665C1851.89 333.687 1850.71 326.009 1848.35 319.633C1846.13 313.127 1842.53 308.182 1837.55 304.799C1832.7 301.286 1826.35 299.529 1818.49 299.529H1784.31V536.29H1726.75V252.099ZM1856.61 536.29L1804.15 409.614L1864.46 409.419L1918.09 533.557V536.29H1856.61Z" fill="#0A0A0A"/>
<path d="M309.772 569.629H341.435L409.207 780.774L476.802 569.629H508.465L421.481 828.624H396.578L309.772 569.629ZM299.455 569.629H327.204L332.007 727.588V828.624H299.455V569.629ZM490.855 569.629H518.605V828.624H486.052V727.588L490.855 569.629Z" fill="#0A0A0A"/>
<path d="M687.478 592.576L616.681 828.624H583.239L666.666 569.629H687.656L687.478 592.576ZM744.756 828.624L673.959 592.576L673.603 569.629H694.771L778.198 828.624H744.756ZM744.756 732.746V760.851H619.883V732.746H744.756Z" fill="#0A0A0A"/>
<path d="M952.585 763.164C952.585 757.116 951.874 751.779 950.451 747.155C949.028 742.411 946.537 738.142 942.98 734.347C939.422 730.552 934.441 726.935 928.038 723.496C921.634 720.057 913.511 716.559 903.668 713.001C892.995 709.207 883.33 704.997 874.673 700.372C866.016 695.628 858.605 690.233 852.438 684.185C846.39 678.137 841.706 671.199 838.386 663.372C835.065 655.546 833.405 646.592 833.405 636.512C833.405 626.432 835.124 617.123 838.563 608.585C842.121 600.047 847.102 592.635 853.505 586.35C860.028 579.946 867.855 574.965 876.986 571.408C886.117 567.85 896.316 566.071 907.581 566.071C924.421 566.071 938.592 569.807 950.095 577.278C961.717 584.63 970.492 594.295 976.421 606.272C982.351 618.131 985.316 630.82 985.316 644.339H952.585C952.585 634.615 950.984 626.017 947.783 618.546C944.699 610.957 939.837 605.027 933.196 600.758C926.674 596.37 918.136 594.177 907.581 594.177C898.094 594.177 890.268 596.015 884.101 599.691C878.053 603.367 873.547 608.348 870.582 614.633C867.736 620.918 866.313 628.093 866.313 636.157C866.313 641.612 867.262 646.592 869.159 651.099C871.056 655.486 873.962 659.578 877.875 663.372C881.907 667.167 886.888 670.666 892.817 673.867C898.865 677.069 905.98 680.153 914.163 683.117C926.852 687.268 937.703 691.893 946.715 696.992C955.728 702.091 963.08 707.843 968.773 714.247C974.465 720.532 978.615 727.706 981.224 735.77C983.952 743.716 985.316 752.728 985.316 762.808C985.316 773.362 983.537 782.909 979.979 791.447C976.54 799.985 971.5 807.278 964.859 813.326C958.218 819.374 950.214 824.059 940.845 827.379C931.477 830.581 920.922 832.182 909.182 832.182C898.984 832.182 888.963 830.522 879.12 827.201C869.396 823.881 860.561 818.9 852.616 812.259C844.671 805.618 838.326 797.436 833.583 787.712C828.839 777.869 826.467 766.484 826.467 753.558H859.198C859.198 762.452 860.502 770.101 863.111 776.505C865.72 782.79 869.337 788.008 873.962 792.159C878.587 796.309 883.864 799.392 889.793 801.408C895.841 803.306 902.304 804.254 909.182 804.254C918.669 804.254 926.615 802.594 933.018 799.274C939.541 795.953 944.403 791.21 947.605 785.043C950.925 778.877 952.585 771.584 952.585 763.164Z" fill="#0A0A0A"/>
<path d="M1222.14 676.714V721.718C1222.14 739.98 1220.12 756.049 1216.09 769.923C1212.18 783.68 1206.43 795.183 1198.84 804.432C1191.25 813.682 1182.12 820.62 1171.44 825.245C1160.77 829.869 1148.73 832.182 1135.33 832.182C1122.41 832.182 1110.61 829.869 1099.94 825.245C1089.26 820.62 1080.07 813.682 1072.36 804.432C1064.66 795.183 1058.67 783.68 1054.4 769.923C1050.25 756.049 1048.17 739.98 1048.17 721.718V676.714C1048.17 658.451 1050.25 642.442 1054.4 628.686C1058.55 614.811 1064.48 603.249 1072.19 593.999C1079.89 584.749 1089.08 577.811 1099.76 573.187C1110.43 568.443 1122.23 566.071 1135.16 566.071C1148.56 566.071 1160.59 568.443 1171.27 573.187C1182.06 577.811 1191.19 584.749 1198.66 593.999C1206.25 603.249 1212.06 614.811 1216.09 628.686C1220.12 642.442 1222.14 658.451 1222.14 676.714ZM1189.77 721.718V676.358C1189.77 662.127 1188.58 649.913 1186.21 639.714C1183.84 629.397 1180.34 620.977 1175.71 614.455C1171.09 607.933 1165.4 603.13 1158.64 600.047C1151.88 596.845 1144.05 595.244 1135.16 595.244C1126.74 595.244 1119.15 596.845 1112.39 600.047C1105.75 603.13 1100.05 607.933 1095.31 614.455C1090.57 620.977 1086.89 629.397 1084.28 639.714C1081.79 649.913 1080.55 662.127 1080.55 676.358V721.718C1080.55 736.067 1081.79 748.4 1084.28 758.717C1086.89 768.915 1090.57 777.335 1095.31 783.976C1100.17 790.498 1105.98 795.36 1112.74 798.562C1119.5 801.646 1127.03 803.187 1135.33 803.187C1144.23 803.187 1152.05 801.646 1158.81 798.562C1165.69 795.36 1171.38 790.498 1175.89 783.976C1180.52 777.335 1183.95 768.915 1186.21 758.717C1188.58 748.4 1189.77 736.067 1189.77 721.718Z" fill="#0A0A0A"/>
<path d="M1467.68 569.629V828.624H1434.77L1331.07 628.863V828.624H1298.34V569.629H1331.07L1435.31 769.923V569.629H1467.68Z" fill="#0A0A0A"/>
<path d="M1549.93 569.629H1622.32C1639.16 569.629 1653.27 572.594 1664.66 578.523C1676.16 584.452 1684.82 593.228 1690.63 604.849C1696.56 616.352 1699.52 630.524 1699.52 647.363C1699.52 659.222 1697.57 670.073 1693.65 679.915C1689.74 689.64 1684.05 697.941 1676.58 704.819C1669.11 711.578 1660.03 716.618 1649.36 719.939L1640.47 723.674H1575.9L1575.54 695.747H1621.97C1631.93 695.747 1640.23 693.612 1646.87 689.343C1653.51 684.955 1658.49 679.085 1661.81 671.733C1665.13 664.38 1666.79 656.257 1666.79 647.363C1666.79 637.402 1665.31 628.686 1662.35 621.215C1659.38 613.744 1654.64 607.992 1648.12 603.96C1641.71 599.809 1633.11 597.734 1622.32 597.734H1582.66V828.624H1549.93V569.629ZM1674.26 828.624L1622.68 711.223L1656.65 711.045L1709.31 826.49V828.624H1674.26Z" fill="#0A0A0A"/>
<path d="M1774.83 569.629L1827.66 699.66L1880.67 569.629H1917.67L1844.03 731.857V828.624H1811.3V731.857L1737.65 569.629H1774.83Z" fill="#0A0A0A"/>
</svg>
