<svg width="1080" height="1080" viewBox="0 0 1080 1080" fill="none" xmlns="http://www.w3.org/2000/svg">
<g clip-path="url(#clip0_60_2)">
<rect width="1080" height="1080" fill="#F5F5F5"/>
<path fill-rule="evenodd" clip-rule="evenodd" d="M1038.05 40.9954H40.9947V1038.05H1038.05V40.9954ZM17.0415 17.0422V1062H1062V17.0422H17.0415Z" fill="#0A0A0A"/>
<path d="M1015.14 905.73V815.284H978.732V905.73H1015.14Z" fill="#F2A918"/>
<path d="M1015.14 710.558H869.896V801.003H1015.14V710.558Z" fill="#F2A918"/>
<path d="M855.802 710.558H710.557V801.003H855.802V710.558Z" fill="#F2A918"/>
<path d="M710.557 905.73V815.284H746.966V905.73H710.557Z" fill="#F2A918"/>
<path d="M710.557 1010.46H855.802V920.011H710.557V1010.46Z" fill="#F2A918"/>
<path d="M869.896 1010.46H1015.14V920.011H869.896V1010.46Z" fill="#F2A918"/>
<path d="M964.638 815.284H761.06V905.73H964.638V815.284Z" fill="#F2A918"/>
<path d="M116.764 73.2739H235.818L373.402 714.368L510.523 73.2739H615.68L423.896 1010.46H322.445L116.764 73.2739ZM68.5864 73.2739H182.082L199.685 691.196V1010.46H68.5864V73.2739ZM563.796 73.2739H677.755V1010.46H547.12V685.189L563.796 73.2739Z" fill="#0A0A0A"/>
<path d="M734.645 73.2742H794.173L862.965 384.205L931.525 73.2742H984.103L888.211 527.808H837.486L734.645 73.2742ZM710.557 73.2742H767.304L776.106 372.967V527.808H710.557V73.2742ZM958.162 73.2742H1015.14V527.808H949.823V372.967L958.162 73.2742Z" fill="#0A0A0A"/>
<path d="M712.768 617.59H719.552L734.074 662.207L748.557 617.59H755.342L736.704 672.318H731.368L712.768 617.59ZM710.557 617.59H716.503L717.532 650.968V672.318H710.557V617.59ZM751.568 617.59H757.514V672.318H750.539V650.968L751.568 617.59Z" fill="#0A0A0A"/>
<path d="M785.893 622.439L770.723 672.318H763.558L781.433 617.59H785.931L785.893 622.439ZM798.166 672.318L782.996 622.439L782.92 617.59H787.455L805.331 672.318H798.166ZM798.166 652.058V657.997H771.409V652.058H798.166Z" fill="#0A0A0A"/>
<path d="M834.891 658.486C834.891 657.208 834.739 656.08 834.434 655.103C834.129 654.1 833.595 653.198 832.833 652.396C832.071 651.595 831.003 650.83 829.631 650.104C828.259 649.377 826.519 648.638 824.41 647.886C822.123 647.084 820.052 646.194 818.197 645.217C816.342 644.215 814.754 643.075 813.433 641.797C812.137 640.519 811.133 639.053 810.422 637.399C809.71 635.745 809.354 633.853 809.354 631.723C809.354 629.593 809.723 627.626 810.46 625.822C811.222 624.018 812.289 622.452 813.661 621.124C815.059 619.77 816.736 618.718 818.692 617.966C820.649 617.214 822.834 616.839 825.248 616.839C828.856 616.839 831.893 617.628 834.357 619.207C836.848 620.76 838.728 622.803 839.998 625.333C841.269 627.839 841.904 630.52 841.904 633.377H834.891C834.891 631.322 834.548 629.506 833.862 627.927C833.201 626.323 832.16 625.07 830.737 624.168C829.339 623.241 827.51 622.777 825.248 622.777C823.215 622.777 821.538 623.166 820.217 623.943C818.921 624.719 817.956 625.772 817.32 627.1C816.71 628.428 816.406 629.944 816.406 631.648C816.406 632.801 816.609 633.853 817.015 634.805C817.422 635.733 818.044 636.597 818.883 637.399C819.747 638.201 820.814 638.94 822.085 639.617C823.381 640.293 824.905 640.945 826.658 641.571C829.377 642.448 831.702 643.426 833.633 644.503C835.564 645.581 837.14 646.796 838.36 648.149C839.579 649.477 840.469 650.993 841.028 652.697C841.612 654.376 841.904 656.28 841.904 658.41C841.904 660.641 841.523 662.658 840.761 664.462C840.024 666.266 838.944 667.807 837.521 669.085C836.098 670.363 834.383 671.353 832.376 672.055C830.368 672.731 828.107 673.07 825.591 673.07C823.406 673.07 821.259 672.719 819.15 672.017C817.066 671.315 815.173 670.263 813.471 668.86C811.768 667.456 810.409 665.727 809.393 663.673C808.376 661.593 807.868 659.187 807.868 656.456H814.881C814.881 658.335 815.161 659.952 815.72 661.305C816.279 662.633 817.054 663.735 818.044 664.612C819.035 665.489 820.166 666.141 821.437 666.567C822.733 666.968 824.117 667.168 825.591 667.168C827.624 667.168 829.326 666.817 830.698 666.116C832.096 665.414 833.138 664.412 833.824 663.109C834.535 661.806 834.891 660.265 834.891 658.486Z" fill="#0A0A0A"/>
<path d="M884.842 640.218V649.728C884.842 653.587 884.41 656.982 883.546 659.914C882.708 662.821 881.476 665.251 879.849 667.206C878.223 669.16 876.267 670.626 873.98 671.604C871.693 672.581 869.114 673.07 866.243 673.07C863.473 673.07 860.945 672.581 858.658 671.604C856.371 670.626 854.402 669.16 852.75 667.206C851.098 665.251 849.815 662.821 848.9 659.914C848.011 656.982 847.566 653.587 847.566 649.728V640.218C847.566 636.359 848.011 632.976 848.9 630.069C849.79 627.138 851.06 624.694 852.712 622.74C854.364 620.785 856.333 619.319 858.62 618.342C860.907 617.34 863.435 616.839 866.204 616.839C869.076 616.839 871.655 617.34 873.942 618.342C876.254 619.319 878.21 620.785 879.811 622.74C881.438 624.694 882.683 627.138 883.546 630.069C884.41 632.976 884.842 636.359 884.842 640.218ZM877.906 649.728V640.143C877.906 637.136 877.651 634.555 877.143 632.4C876.635 630.22 875.885 628.441 874.895 627.062C873.904 625.684 872.684 624.669 871.236 624.018C869.787 623.341 868.11 623.003 866.204 623.003C864.4 623.003 862.774 623.341 861.326 624.018C859.903 624.669 858.683 625.684 857.667 627.062C856.65 628.441 855.863 630.22 855.304 632.4C854.77 634.555 854.503 637.136 854.503 640.143V649.728C854.503 652.76 854.77 655.366 855.304 657.546C855.863 659.701 856.65 661.48 857.667 662.883C858.709 664.262 859.954 665.289 861.402 665.966C862.85 666.617 864.464 666.943 866.243 666.943C868.148 666.943 869.825 666.617 871.274 665.966C872.747 665.289 873.967 664.262 874.933 662.883C875.924 661.48 876.66 659.701 877.143 657.546C877.651 655.366 877.906 652.76 877.906 649.728Z" fill="#0A0A0A"/>
<path d="M929.648 617.59V672.318H922.597L900.376 630.107V672.318H893.363V617.59H900.376L922.711 659.914V617.59H929.648Z" fill="#0A0A0A"/>
<path d="M939.465 617.59H954.978C958.586 617.59 961.609 618.217 964.049 619.47C966.514 620.723 968.368 622.577 969.614 625.033C970.884 627.463 971.519 630.458 971.519 634.016C971.519 636.522 971.1 638.815 970.261 640.895C969.423 642.949 968.203 644.704 966.602 646.157C965.002 647.585 963.058 648.65 960.771 649.352L958.865 650.141H945.03L944.953 644.24H954.901C957.036 644.24 958.814 643.789 960.237 642.887C961.66 641.96 962.728 640.719 963.439 639.166C964.15 637.612 964.506 635.895 964.506 634.016C964.506 631.911 964.189 630.069 963.553 628.491C962.918 626.912 961.902 625.697 960.504 624.845C959.132 623.968 957.29 623.529 954.978 623.529H946.478V672.318H939.465V617.59ZM966.107 672.318L955.054 647.51L962.334 647.472L973.616 671.867V672.318H966.107Z" fill="#0A0A0A"/>
<path d="M979.85 617.59L991.17 645.067L1002.53 617.59H1010.46L994.676 651.87V672.318H987.663V651.87L971.884 617.59H979.85Z" fill="#0A0A0A"/>
<path d="M713.805 561.266H721.83L731.104 592.443L740.347 561.266H747.435L734.507 606.842H727.669L713.805 561.266ZM710.557 561.266H718.207L719.394 591.316V606.842H710.557V561.266ZM743.938 561.266H751.619V606.842H742.813V591.316L743.938 561.266Z" fill="#0A0A0A"/>
<path d="M783.365 599.267V606.842H763.599V599.267H783.365ZM766.441 561.266V606.842H757.291V561.266H766.441ZM780.711 579.734V587.09H763.599V579.734H780.711ZM783.303 561.266V568.872H763.599V561.266H783.303Z" fill="#0A0A0A"/>
<path d="M806.149 594.853C806.149 594.039 806.076 593.298 805.93 592.631C805.785 591.963 805.473 591.347 804.994 590.784C804.536 590.22 803.859 589.657 802.964 589.093C802.09 588.53 800.945 587.946 799.529 587.341C797.843 586.631 796.209 585.88 794.627 585.087C793.045 584.273 791.619 583.334 790.349 582.27C789.079 581.205 788.069 579.953 787.32 578.513C786.591 577.053 786.227 575.341 786.227 573.38C786.227 571.46 786.57 569.718 787.257 568.152C787.965 566.587 788.964 565.252 790.255 564.146C791.546 563.019 793.055 562.153 794.783 561.548C796.532 560.943 798.478 560.64 800.622 560.64C803.537 560.64 806.055 561.245 808.179 562.455C810.323 563.666 811.978 565.325 813.144 567.432C814.33 569.54 814.924 571.961 814.924 574.695H805.806C805.806 573.401 805.618 572.263 805.244 571.283C804.89 570.281 804.317 569.498 803.526 568.935C802.735 568.372 801.715 568.09 800.466 568.09C799.3 568.09 798.332 568.33 797.562 568.81C796.813 569.269 796.25 569.905 795.876 570.719C795.522 571.512 795.345 572.41 795.345 573.411C795.345 574.162 795.522 574.841 795.876 575.446C796.25 576.03 796.761 576.562 797.406 577.042C798.051 577.501 798.811 577.95 799.685 578.388C800.58 578.826 801.559 579.254 802.621 579.672C804.681 580.485 806.503 581.383 808.085 582.364C809.667 583.323 810.989 584.409 812.051 585.619C813.112 586.808 813.914 588.154 814.455 589.657C814.996 591.159 815.267 592.871 815.267 594.79C815.267 596.689 814.934 598.421 814.268 599.987C813.622 601.531 812.675 602.866 811.426 603.993C810.177 605.099 808.668 605.955 806.898 606.56C805.15 607.165 803.193 607.468 801.028 607.468C798.925 607.468 796.937 607.176 795.064 606.591C793.19 605.986 791.535 605.078 790.099 603.868C788.683 602.637 787.57 601.082 786.758 599.204C785.946 597.305 785.54 595.062 785.54 592.474H794.689C794.689 593.851 794.825 595.03 795.095 596.011C795.366 596.971 795.782 597.743 796.344 598.328C796.906 598.891 797.593 599.319 798.405 599.611C799.238 599.882 800.185 600.018 801.247 600.018C802.454 600.018 803.412 599.788 804.119 599.329C804.848 598.87 805.368 598.255 805.681 597.482C805.993 596.71 806.149 595.834 806.149 594.853Z" fill="#0A0A0A"/>
<path d="M838.894 594.853C838.894 594.039 838.821 593.298 838.676 592.631C838.53 591.963 838.218 591.347 837.739 590.784C837.281 590.22 836.604 589.657 835.709 589.093C834.835 588.53 833.69 587.946 832.274 587.341C830.588 586.631 828.954 585.88 827.372 585.087C825.79 584.273 824.364 583.334 823.094 582.27C821.824 581.205 820.814 579.953 820.065 578.513C819.336 577.053 818.972 575.341 818.972 573.38C818.972 571.46 819.316 569.718 820.003 568.152C820.71 566.587 821.71 565.252 823 564.146C824.291 563.019 825.8 562.153 827.528 561.548C829.277 560.943 831.223 560.64 833.367 560.64C836.282 560.64 838.801 561.245 840.924 562.455C843.068 563.666 844.723 565.325 845.889 567.432C847.075 569.54 847.669 571.961 847.669 574.695H838.551C838.551 573.401 838.363 572.263 837.989 571.283C837.635 570.281 837.062 569.498 836.271 568.935C835.48 568.372 834.46 568.09 833.211 568.09C832.045 568.09 831.077 568.33 830.307 568.81C829.558 569.269 828.996 569.905 828.621 570.719C828.267 571.512 828.09 572.41 828.09 573.411C828.09 574.162 828.267 574.841 828.621 575.446C828.996 576.03 829.506 576.562 830.151 577.042C830.796 577.501 831.556 577.95 832.43 578.388C833.326 578.826 834.304 579.254 835.366 579.672C837.427 580.485 839.248 581.383 840.83 582.364C842.412 583.323 843.734 584.409 844.796 585.619C845.858 586.808 846.659 588.154 847.2 589.657C847.742 591.159 848.012 592.871 848.012 594.79C848.012 596.689 847.679 598.421 847.013 599.987C846.368 601.531 845.42 602.866 844.171 603.993C842.922 605.099 841.413 605.955 839.644 606.56C837.895 607.165 835.938 607.468 833.773 607.468C831.671 607.468 829.683 607.176 827.809 606.591C825.935 605.986 824.281 605.078 822.844 603.868C821.429 602.637 820.315 601.082 819.503 599.204C818.691 597.305 818.285 595.062 818.285 592.474H827.434C827.434 593.851 827.57 595.03 827.84 596.011C828.111 596.971 828.527 597.743 829.089 598.328C829.651 598.891 830.338 599.319 831.15 599.611C831.983 599.882 832.93 600.018 833.992 600.018C835.199 600.018 836.157 599.788 836.865 599.329C837.593 598.87 838.114 598.255 838.426 597.482C838.738 596.71 838.894 595.834 838.894 594.853Z" fill="#0A0A0A"/>
<path d="M878.478 599.267V606.842H858.712V599.267H878.478ZM861.553 561.266V606.842H852.404V561.266H861.553ZM875.824 579.734V587.09H858.712V579.734H875.824ZM878.415 561.266V568.872H858.712V561.266H878.415Z" fill="#0A0A0A"/>
<path d="M913.815 561.266V606.842H904.978L890.708 578.326V606.842H882.027V561.266H890.739L905.134 590.095V561.266H913.815Z" fill="#0A0A0A"/>
<path d="M950.276 582.896V601.677C949.63 602.366 948.683 603.169 947.434 604.087C946.206 604.984 944.593 605.777 942.594 606.466C940.616 607.134 938.202 607.468 935.35 607.468C932.831 607.468 930.541 607.071 928.48 606.278C926.44 605.485 924.681 604.285 923.203 602.679C921.746 601.051 920.632 599.027 919.862 596.606C919.091 594.164 918.706 591.274 918.706 587.935V580.172C918.706 576.875 919.071 574.006 919.799 571.564C920.549 569.102 921.631 567.057 923.047 565.429C924.462 563.801 926.149 562.591 928.105 561.798C930.083 561.005 932.31 560.609 934.788 560.609C938.202 560.609 941.002 561.183 943.187 562.33C945.394 563.478 947.059 565.179 948.184 567.432C949.328 569.686 950.015 572.451 950.244 575.728H941.408C941.262 573.808 940.939 572.305 940.44 571.22C939.961 570.135 939.284 569.363 938.41 568.904C937.536 568.424 936.401 568.184 935.006 568.184C933.799 568.184 932.748 568.403 931.852 568.841C930.957 569.258 930.208 569.947 929.604 570.907C929 571.867 928.553 573.098 928.261 574.601C927.97 576.103 927.824 577.94 927.824 580.11V587.935C927.824 590.085 927.991 591.921 928.324 593.444C928.657 594.968 929.146 596.209 929.792 597.169C930.458 598.129 931.29 598.828 932.29 599.267C933.31 599.684 934.507 599.893 935.881 599.893C936.984 599.893 937.869 599.778 938.535 599.548C939.201 599.319 939.732 599.079 940.127 598.828C940.544 598.557 940.887 598.348 941.158 598.202V589.813H934.632V582.896H950.276Z" fill="#0A0A0A"/>
<path d="M981.147 599.267V606.842H961.381V599.267H981.147ZM964.223 561.266V606.842H955.074V561.266H964.223ZM978.493 579.734V587.09H961.381V579.734H978.493ZM981.085 561.266V568.872H961.381V561.266H981.085Z" fill="#0A0A0A"/>
<path d="M984.727 561.266H999.31C1002.35 561.266 1004.94 561.788 1007.09 562.831C1009.23 563.874 1010.87 565.419 1012.02 567.464C1013.16 569.509 1013.74 572.034 1013.74 575.039C1013.74 577.501 1013.4 579.609 1012.74 581.362C1012.07 583.094 1011.12 584.544 1009.9 585.713C1008.67 586.861 1007.2 587.779 1005.49 588.467L1002.71 590.126H990.879L990.848 582.52H999.06C1000.31 582.52 1001.34 582.249 1002.15 581.706C1002.98 581.143 1003.6 580.36 1003.99 579.359C1004.41 578.336 1004.62 577.147 1004.62 575.79C1004.62 574.35 1004.43 573.119 1004.06 572.096C1003.7 571.053 1003.13 570.26 1002.34 569.718C1001.57 569.154 1000.56 568.872 999.31 568.872H993.877V606.842H984.727V561.266ZM1005.37 606.842L997.03 586.527L1006.62 586.495L1015.14 606.403V606.842H1005.37Z" fill="#0A0A0A"/>
</g>
<defs>
<clipPath id="clip0_60_2">
<rect width="1080" height="1080" fill="white"/>
</clipPath>
</defs>
</svg>
