<svg width="1080" height="1080" viewBox="0 0 1080 1080" fill="none" xmlns="http://www.w3.org/2000/svg">
<g clip-path="url(#clip0_57_327)">
<path fill-rule="evenodd" clip-rule="evenodd" d="M1055.22 23.8209H23.8204V1055.22H1055.22V23.8209ZM-0.958008 -0.95752V1080H1080V-0.95752H-0.958008Z" fill="#0A0A0A"/>
<path d="M1031.53 918.346V824.784H993.863V918.346H1031.53Z" fill="#F5F5F5"/>
<path d="M1031.53 716.45H881.278V810.012H1031.53V716.45Z" fill="#F5F5F5"/>
<path d="M866.698 716.45H716.449V810.012H866.698V716.45Z" fill="#F5F5F5"/>
<path d="M716.449 918.346V824.784H754.113V918.346H716.449Z" fill="#F5F5F5"/>
<path d="M716.449 1026.68H866.698V933.119H716.449V1026.68Z" fill="#F5F5F5"/>
<path d="M881.278 1026.68H1031.53V933.119H881.278V1026.68Z" fill="#F5F5F5"/>
<path d="M979.284 824.784H768.692V918.346H979.284V824.784Z" fill="#F5F5F5"/>
<path d="M102.2 57.2114H225.356L367.68 720.392L509.525 57.2114H618.304L419.913 1026.68H314.967L102.2 57.2114ZM52.3628 57.2114H169.768L187.978 696.422V1026.68H52.3628V57.2114ZM564.633 57.2114H682.518V1026.68H547.382V690.207L564.633 57.2114Z" fill="#0A0A0A"/>
<path d="M741.368 57.2114H802.946L874.108 378.854L945.03 57.2114H999.42L900.224 527.404H847.751L741.368 57.2114ZM716.449 57.2114H775.152L784.257 367.228V527.404H716.449V57.2114ZM972.584 57.2114H1031.53V527.404H963.959V367.228L972.584 57.2114Z" fill="#0A0A0A"/>
<path d="M718.736 620.28H725.754L740.776 666.433L755.758 620.28H762.777L743.497 676.893H737.977L718.736 620.28ZM716.449 620.28H722.6L723.664 654.807V676.893H716.449V620.28ZM758.873 620.28H765.024V676.893H757.809V654.807L758.873 620.28Z" fill="#0A0A0A"/>
<path d="M794.38 625.296L778.688 676.893H771.276L789.767 620.28H794.42L794.38 625.296ZM807.076 676.893L791.384 625.296L791.305 620.28H795.997L814.488 676.893H807.076ZM807.076 655.935V662.078H779.398V655.935H807.076Z" fill="#0A0A0A"/>
<path d="M845.067 662.584C845.067 661.262 844.909 660.095 844.593 659.085C844.278 658.048 843.726 657.114 842.937 656.285C842.149 655.455 841.045 654.665 839.626 653.913C838.206 653.161 836.406 652.397 834.224 651.619C831.858 650.79 829.716 649.869 827.797 648.858C825.878 647.822 824.236 646.642 822.869 645.32C821.528 643.998 820.49 642.482 819.754 640.771C819.018 639.06 818.65 637.103 818.65 634.9C818.65 632.696 819.031 630.661 819.794 628.795C820.582 626.929 821.686 625.309 823.105 623.935C824.551 622.535 826.286 621.446 828.31 620.669C830.334 619.891 832.594 619.502 835.091 619.502C838.824 619.502 841.965 620.319 844.515 621.952C847.091 623.559 849.036 625.672 850.35 628.29C851.664 630.882 852.321 633.655 852.321 636.61H845.067C845.067 634.485 844.712 632.606 844.002 630.973C843.319 629.314 842.241 628.017 840.769 627.084C839.323 626.125 837.431 625.646 835.091 625.646C832.989 625.646 831.254 626.047 829.887 626.851C828.546 627.655 827.548 628.743 826.89 630.117C826.26 631.491 825.944 633.059 825.944 634.822C825.944 636.014 826.154 637.103 826.575 638.088C826.996 639.047 827.64 639.941 828.507 640.771C829.401 641.6 830.505 642.365 831.819 643.065C833.159 643.765 834.737 644.439 836.55 645.087C839.363 645.994 841.768 647.005 843.765 648.12C845.763 649.234 847.393 650.491 848.654 651.891C849.916 653.265 850.836 654.833 851.414 656.596C852.019 658.333 852.321 660.303 852.321 662.506C852.321 664.813 851.927 666.9 851.138 668.766C850.376 670.633 849.259 672.227 847.787 673.549C846.315 674.871 844.541 675.895 842.464 676.621C840.388 677.32 838.048 677.67 835.446 677.67C833.186 677.67 830.965 677.307 828.783 676.582C826.628 675.856 824.669 674.767 822.908 673.315C821.147 671.864 819.741 670.075 818.69 667.95C817.638 665.798 817.112 663.31 817.112 660.484H824.367C824.367 662.428 824.656 664.1 825.235 665.5C825.813 666.874 826.614 668.015 827.64 668.922C828.665 669.829 829.834 670.503 831.149 670.944C832.489 671.358 833.922 671.566 835.446 671.566C837.549 671.566 839.31 671.203 840.73 670.477C842.175 669.751 843.253 668.714 843.963 667.366C844.699 666.019 845.067 664.424 845.067 662.584Z" fill="#0A0A0A"/>
<path d="M896.739 643.687V653.524C896.739 657.516 896.292 661.029 895.398 664.061C894.531 667.068 893.256 669.583 891.574 671.605C889.891 673.627 887.868 675.143 885.502 676.154C883.136 677.165 880.468 677.67 877.498 677.67C874.633 677.67 872.018 677.165 869.652 676.154C867.286 675.143 865.249 673.627 863.541 671.605C861.832 669.583 860.505 667.068 859.559 664.061C858.639 661.029 858.179 657.516 858.179 653.524V643.687C858.179 639.695 858.639 636.196 859.559 633.189C860.479 630.156 861.793 627.629 863.501 625.607C865.21 623.585 867.247 622.068 869.613 621.057C871.978 620.021 874.594 619.502 877.459 619.502C880.429 619.502 883.097 620.021 885.462 621.057C887.854 622.068 889.878 623.585 891.534 625.607C893.217 627.629 894.504 630.156 895.398 633.189C896.292 636.196 896.739 639.695 896.739 643.687ZM889.563 653.524V643.609C889.563 640.499 889.3 637.829 888.774 635.6C888.249 633.344 887.473 631.504 886.448 630.078C885.423 628.653 884.161 627.603 882.663 626.929C881.165 626.229 879.43 625.879 877.459 625.879C875.592 625.879 873.91 626.229 872.412 626.929C870.94 627.603 869.678 628.653 868.627 630.078C867.575 631.504 866.761 633.344 866.182 635.6C865.63 637.829 865.354 640.499 865.354 643.609V653.524C865.354 656.661 865.63 659.357 866.182 661.612C866.761 663.841 867.575 665.682 868.627 667.133C869.705 668.559 870.993 669.622 872.491 670.322C873.989 670.996 875.658 671.332 877.498 671.332C879.469 671.332 881.204 670.996 882.703 670.322C884.227 669.622 885.489 668.559 886.488 667.133C887.513 665.682 888.275 663.841 888.774 661.612C889.3 659.357 889.563 656.661 889.563 653.524Z" fill="#0A0A0A"/>
<path d="M943.088 620.28V676.893H935.794L912.808 633.228V676.893H905.553V620.28H912.808L935.912 664.061V620.28H943.088Z" fill="#0A0A0A"/>
<path d="M953.243 620.28H969.29C973.023 620.28 976.15 620.928 978.674 622.224C981.224 623.52 983.142 625.438 984.43 627.979C985.745 630.493 986.402 633.591 986.402 637.271C986.402 639.864 985.968 642.235 985.101 644.387C984.233 646.513 982.971 648.327 981.315 649.83C979.66 651.308 977.649 652.41 975.283 653.136L973.312 653.952H959L958.921 647.847H969.211C971.419 647.847 973.259 647.381 974.731 646.448C976.203 645.489 977.307 644.206 978.043 642.598C978.779 640.991 979.147 639.216 979.147 637.271C979.147 635.094 978.818 633.189 978.161 631.556C977.504 629.923 976.453 628.665 975.007 627.784C973.588 626.877 971.682 626.423 969.29 626.423H960.498V676.893H953.243V620.28ZM980.803 676.893L969.369 651.23L976.9 651.191L988.57 676.426V676.893H980.803Z" fill="#0A0A0A"/>
<path d="M995.019 620.28L1006.73 648.703L1018.48 620.28H1026.68L1010.36 655.741V676.893H1003.1V655.741L986.779 620.28H995.019Z" fill="#0A0A0A"/>
<path d="M719.809 562.015H728.11L737.704 594.266L747.265 562.015H754.597L741.225 609.161H734.15L719.809 562.015ZM716.449 562.015H724.363L725.591 593.1V609.161H716.449V562.015ZM750.98 562.015H758.926V609.161H749.817V593.1L750.98 562.015Z" fill="#0A0A0A"/>
<path d="M791.765 601.325V609.161H771.318V601.325H791.765ZM774.258 562.015V609.161H764.794V562.015H774.258ZM789.02 581.119V588.729H771.318V581.119H789.02ZM791.701 562.015V569.883H771.318V562.015H791.701Z" fill="#0A0A0A"/>
<path d="M815.334 596.759C815.334 595.917 815.259 595.151 815.108 594.46C814.958 593.769 814.634 593.133 814.139 592.55C813.665 591.967 812.966 591.384 812.04 590.801C811.135 590.218 809.951 589.614 808.486 588.988C806.742 588.254 805.052 587.477 803.415 586.656C801.778 585.815 800.303 584.843 798.99 583.742C797.676 582.641 796.632 581.346 795.857 579.857C795.103 578.345 794.726 576.575 794.726 574.546C794.726 572.56 795.081 570.758 795.792 569.139C796.524 567.52 797.558 566.138 798.893 564.994C800.228 563.828 801.789 562.932 803.577 562.306C805.385 561.68 807.399 561.367 809.617 561.367C812.632 561.367 815.237 561.993 817.434 563.245C819.652 564.497 821.364 566.214 822.57 568.394C823.797 570.574 824.411 573.078 824.411 575.906H814.979C814.979 574.568 814.785 573.391 814.398 572.377C814.032 571.341 813.439 570.531 812.621 569.948C811.803 569.365 810.748 569.074 809.455 569.074C808.25 569.074 807.248 569.322 806.451 569.819C805.676 570.294 805.095 570.952 804.707 571.794C804.341 572.614 804.158 573.542 804.158 574.579C804.158 575.356 804.341 576.057 804.707 576.683C805.095 577.288 805.622 577.838 806.29 578.335C806.957 578.81 807.743 579.274 808.648 579.727C809.574 580.18 810.586 580.623 811.684 581.055C813.816 581.897 815.7 582.825 817.337 583.839C818.974 584.832 820.341 585.955 821.439 587.207C822.538 588.437 823.367 589.83 823.927 591.384C824.486 592.938 824.766 594.708 824.766 596.694C824.766 598.659 824.422 600.45 823.733 602.069C823.065 603.667 822.085 605.048 820.793 606.214C819.501 607.358 817.94 608.243 816.11 608.869C814.301 609.495 812.276 609.808 810.037 609.808C807.862 609.808 805.805 609.506 803.867 608.902C801.929 608.276 800.217 607.337 798.731 606.085C797.267 604.811 796.115 603.203 795.275 601.26C794.435 599.296 794.015 596.975 794.015 594.298H803.48C803.48 595.723 803.62 596.943 803.9 597.957C804.18 598.95 804.61 599.749 805.192 600.353C805.773 600.936 806.484 601.379 807.324 601.681C808.185 601.962 809.165 602.102 810.263 602.102C811.512 602.102 812.503 601.864 813.235 601.39C813.988 600.915 814.527 600.278 814.85 599.479C815.173 598.68 815.334 597.774 815.334 596.759Z" fill="#0A0A0A"/>
<path d="M849.208 596.759C849.208 595.917 849.132 595.151 848.981 594.46C848.831 593.769 848.508 593.133 848.012 592.55C847.539 591.967 846.839 591.384 845.913 590.801C845.008 590.218 843.824 589.614 842.36 588.988C840.615 588.254 838.925 587.477 837.288 586.656C835.652 585.815 834.177 584.843 832.863 583.742C831.549 582.641 830.505 581.346 829.73 579.857C828.976 578.345 828.599 576.575 828.599 574.546C828.599 572.56 828.955 570.758 829.665 569.139C830.397 567.52 831.431 566.138 832.766 564.994C834.101 563.828 835.662 562.932 837.45 562.306C839.259 561.68 841.272 561.367 843.49 561.367C846.505 561.367 849.111 561.993 851.307 563.245C853.525 564.497 855.237 566.214 856.443 568.394C857.671 570.574 858.284 573.078 858.284 575.906H848.852C848.852 574.568 848.658 573.391 848.271 572.377C847.905 571.341 847.313 570.531 846.494 569.948C845.676 569.365 844.621 569.074 843.329 569.074C842.123 569.074 841.121 569.322 840.325 569.819C839.549 570.294 838.968 570.952 838.58 571.794C838.214 572.614 838.031 573.542 838.031 574.579C838.031 575.356 838.214 576.057 838.58 576.683C838.968 577.288 839.496 577.838 840.163 578.335C840.831 578.81 841.617 579.274 842.521 579.727C843.447 580.18 844.459 580.623 845.558 581.055C847.689 581.897 849.574 582.825 851.21 583.839C852.847 584.832 854.214 585.955 855.313 587.207C856.411 588.437 857.24 589.83 857.8 591.384C858.36 592.938 858.64 594.708 858.64 596.694C858.64 598.659 858.295 600.45 857.606 602.069C856.938 603.667 855.959 605.048 854.667 606.214C853.374 607.358 851.813 608.243 849.983 608.869C848.174 609.495 846.15 609.808 843.91 609.808C841.735 609.808 839.679 609.506 837.741 608.902C835.802 608.276 834.09 607.337 832.605 606.085C831.14 604.811 829.988 603.203 829.148 601.26C828.308 599.296 827.889 596.975 827.889 594.298H837.353C837.353 595.723 837.493 596.943 837.773 597.957C838.053 598.95 838.483 599.749 839.065 600.353C839.646 600.936 840.357 601.379 841.197 601.681C842.058 601.962 843.038 602.102 844.136 602.102C845.385 602.102 846.376 601.864 847.108 601.39C847.862 600.915 848.4 600.278 848.723 599.479C849.046 598.68 849.208 597.774 849.208 596.759Z" fill="#0A0A0A"/>
<path d="M890.155 601.325V609.161H869.708V601.325H890.155ZM872.647 562.015V609.161H863.183V562.015H872.647ZM887.409 581.119V588.729H869.708V581.119H887.409ZM890.09 562.015V569.883H869.708V562.015H890.09Z" fill="#0A0A0A"/>
<path d="M926.709 562.015V609.161H917.568L902.806 579.662V609.161H893.826V562.015H902.838L917.729 591.837V562.015H926.709Z" fill="#0A0A0A"/>
<path d="M964.426 584.39V603.818C963.759 604.53 962.779 605.361 961.487 606.311C960.216 607.24 958.547 608.06 956.48 608.772C954.434 609.463 951.936 609.808 948.986 609.808C946.38 609.808 944.012 609.398 941.88 608.578C939.769 607.758 937.95 606.516 936.421 604.854C934.913 603.17 933.761 601.076 932.964 598.572C932.168 596.047 931.769 593.057 931.769 589.603V581.573C931.769 578.162 932.146 575.194 932.9 572.668C933.675 570.121 934.795 568.005 936.259 566.322C937.724 564.638 939.468 563.386 941.492 562.565C943.538 561.745 945.842 561.335 948.405 561.335C951.936 561.335 954.833 561.929 957.094 563.116C959.376 564.303 961.099 566.062 962.262 568.394C963.446 570.725 964.157 573.586 964.394 576.975H955.253C955.102 574.989 954.768 573.434 954.251 572.312C953.756 571.189 953.056 570.391 952.152 569.916C951.247 569.419 950.074 569.171 948.631 569.171C947.382 569.171 946.294 569.398 945.368 569.851C944.442 570.283 943.667 570.995 943.043 571.988C942.418 572.981 941.955 574.255 941.654 575.809C941.352 577.363 941.201 579.263 941.201 581.508V589.603C941.201 591.826 941.374 593.726 941.718 595.302C942.063 596.878 942.569 598.162 943.236 599.155C943.925 600.148 944.787 600.871 945.821 601.325C946.876 601.756 948.114 601.972 949.535 601.972C950.677 601.972 951.592 601.854 952.281 601.616C952.97 601.379 953.519 601.13 953.928 600.871C954.359 600.591 954.714 600.375 954.994 600.224V591.546H948.243V584.39H964.426Z" fill="#0A0A0A"/>
<path d="M996.361 601.325V609.161H975.914V601.325H996.361ZM978.854 562.015V609.161H969.39V562.015H978.854ZM993.616 581.119V588.729H975.914V581.119H993.616ZM996.297 562.015V569.883H975.914V562.015H996.297Z" fill="#0A0A0A"/>
<path d="M1000.06 562.015H1015.15C1018.29 562.015 1020.97 562.555 1023.19 563.634C1025.41 564.713 1027.11 566.311 1028.3 568.426C1029.48 570.542 1030.07 573.154 1030.07 576.262C1030.07 578.81 1029.73 580.99 1029.04 582.803C1028.35 584.595 1027.37 586.095 1026.1 587.304C1024.83 588.491 1023.31 589.441 1021.55 590.154L1018.67 591.87H1006.43L1006.4 584.001H1014.89C1016.18 584.001 1017.25 583.721 1018.09 583.159C1018.95 582.576 1019.59 581.767 1019.99 580.731C1020.43 579.673 1020.64 578.443 1020.64 577.039C1020.64 575.55 1020.45 574.276 1020.06 573.219C1019.69 572.139 1019.1 571.319 1018.28 570.758C1017.49 570.175 1016.44 569.883 1015.15 569.883H1009.53V609.161H1000.06V562.015ZM1021.42 609.161L1012.79 588.146L1022.71 588.114L1031.53 608.707V609.161H1021.42Z" fill="#0A0A0A"/>
</g>
<defs>
<clipPath id="clip0_57_327">
<rect width="1080" height="1080" fill="white"/>
</clipPath>
</defs>
</svg>
